<mxfile host="app.diagrams.net" modified="2023-07-20T08:54:09.281Z" agent="Mozilla/5.0 (Macintosh; Intel Mac OS X 10_15_7) AppleWebKit/537.36 (KHTML, like Gecko) Chrome/114.0.0.0 Safari/537.36" version="21.6.2" etag="mww0ahUiB0o_yHTs9ZhS" type="github">
  <diagram name="第 1 页" id="zEr-qzzp2-Hb11wyF7Ir">
    <mxGraphModel>
      <root>
        <mxCell id="0" />
        <mxCell id="1" parent="0" />
      </root>
    </mxGraphModel>
  </diagram>
</mxfile>
